<?xml version="1.0" standalone="no"?><!DOCTYPE svg PUBLIC "-//W3C//DTD SVG 1.1//EN"
        "http://www.w3.org/Graphics/SVG/1.1/DTD/svg11.dtd">
<svg t="1681822509103" class="icon" viewBox="0 0 1024 1024" version="1.1" xmlns="http://www.w3.org/2000/svg" p-id="9387"
     data-spm-anchor-id="a313x.7781069.0.i62" xmlns:xlink="http://www.w3.org/1999/xlink" width="200" height="200">
    <path d="M609.28 734.208h-471.04c-26.624 0-48.128-21.504-48.128-48.128s21.504-48.128 48.128-48.128h470.016c26.624 0 48.128 21.504 48.128 48.128 1.024 26.624-21.504 48.128-47.104 48.128z m0 0"
          fill="#d2b48c" opacity=".3" p-id="9388" data-spm-anchor-id="a313x.7781069.0.i55" class=""></path>
    <path d="M769.024 904.192H95.232c-26.624 0-48.128 21.504-48.128 48.128s21.504 48.128 48.128 48.128h674.816v-96.256z"
          fill="#d2b48c" opacity=".3" p-id="9389" data-spm-anchor-id="a313x.7781069.0.i56" class=""></path>
    <path d="M786.432 904.192h40.96v95.232h-40.96z" fill="#d2b48c" opacity=".3" p-id="9390"
          data-spm-anchor-id="a313x.7781069.0.i61" class=""></path>
    <path d="M876.544 904.192h25.6v95.232h-25.6z" fill="#d2b48c" opacity=".3" p-id="9391"
          data-spm-anchor-id="a313x.7781069.0.i65" class=""></path>
    <path d="M975.872 904.192h-60.416v95.232h60.416c26.624 0 48.128-21.504 48.128-48.128 0-25.6-21.504-47.104-48.128-47.104z"
          fill="#d2b48c" opacity=".3" p-id="9392" data-spm-anchor-id="a313x.7781069.0.i58" class=""></path>
    <path d="M961.536 461.824c-14.336 0-25.6-12.288-25.6-25.6 0-14.336 12.288-25.6 25.6-25.6 14.336 0 25.6 12.288 25.6 25.6 0 14.336-11.264 25.6-25.6 25.6z m0-39.936c-8.192 0-14.336 7.168-14.336 14.336s7.168 14.336 14.336 14.336 14.336-7.168 14.336-14.336-6.144-14.336-14.336-14.336z m0 0"
          fill="#e3cdb0" opacity=".3" p-id="9393" data-spm-anchor-id="a313x.7781069.0.i68" class=""></path>
    <path d="M278.528 183.296c-8.192 0-15.36-3.072-21.504-8.192-7.168-6.144-11.264-14.336-12.288-22.528-1.024-8.192 2.048-17.408 8.192-24.576 6.144-7.168 14.336-11.264 22.528-12.288 18.432-1.024 34.816 12.288 35.84 30.72 1.024 18.432-12.288 34.816-30.72 35.84 0 1.024-2.048 1.024-2.048 1.024z m0-56.32H276.48c-6.144 1.024-12.288 3.072-16.384 8.192-4.096 5.12-6.144 10.24-5.12 17.408 1.024 7.168 3.072 12.288 8.192 16.384 5.12 4.096 11.264 6.144 17.408 5.12 13.312-1.024 22.528-12.288 21.504-25.6-1.024-13.312-12.288-21.504-23.552-21.504z m0 0"
          fill="#d2b48c" opacity=".3" p-id="9394" data-spm-anchor-id="a313x.7781069.0.i72" class=""></path>
    <path d="M55.296 615.424c-3.072 0-6.144-3.072-6.144-6.144V573.44l-25.6 25.6c-2.048 2.048-6.144 2.048-8.192 0-2.048-2.048-2.048-6.144 0-8.192L40.96 565.248H6.144c-3.072 0-6.144-2.048-6.144-5.12s3.072-6.144 6.144-6.144H40.96l-25.6-25.6c-2.048-2.048-2.048-6.144 0-8.192 2.048-2.048 6.144-2.048 8.192 0l25.6 25.6v-35.84c0-3.072 3.072-6.144 6.144-6.144s6.144 3.072 6.144 6.144v35.84l25.6-25.6c2.048-2.048 6.144-2.048 8.192 0 2.048 2.048 2.048 6.144 0 8.192l-25.6 25.6h35.84c3.072 0 6.144 3.072 6.144 6.144s-3.072 6.144-6.144 6.144H69.632l25.6 25.6c2.048 2.048 2.048 6.144 0 8.192-2.048 2.048-6.144 2.048-8.192 0L61.44 573.44v35.84c0 3.072-3.072 6.144-6.144 6.144z m0 0"
          fill="#d2b48c" opacity=".3" p-id="9395" data-spm-anchor-id="a313x.7781069.0.i74" class=""></path>
    <path d="M1013.76 718.848h-48.128c-3.072 0-6.144-3.072-6.144-6.144s3.072-6.144 6.144-6.144H1013.76c3.072 0 6.144 3.072 6.144 6.144-1.024 3.072-3.072 6.144-6.144 6.144z m0 0"
          fill="#e3cdb0" p-id="9396" data-spm-anchor-id="a313x.7781069.0.i67" class=""></path>
    <path d="M989.184 742.4c-3.072 0-6.144-3.072-6.144-6.144v-48.128c0-3.072 3.072-6.144 6.144-6.144s6.144 3.072 6.144 6.144v48.128c0 3.072-3.072 6.144-6.144 6.144zM494.592 151.552h-48.128c-3.072 0-6.144-3.072-6.144-6.144s3.072-6.144 6.144-6.144h48.128c3.072 0 6.144 3.072 6.144 6.144-1.024 3.072-3.072 6.144-6.144 6.144z"
          fill="#e3cdb0" p-id="9397" data-spm-anchor-id="a313x.7781069.0.i66" class=""></path>
    <path d="M470.016 175.104c-3.072 0-6.144-3.072-6.144-6.144v-48.128c0-3.072 3.072-6.144 6.144-6.144s6.144 3.072 6.144 6.144v48.128c-1.024 4.096-3.072 6.144-6.144 6.144z m0 0"
          fill="#d2b48c" p-id="9398" data-spm-anchor-id="a313x.7781069.0.i71" class=""></path>
    <path d="M779.264 140.288c0 27.648-19.456 51.2-43.008 51.2 23.552 0 43.008 22.528 43.008 51.2 0-27.648 19.456-51.2 43.008-51.2-23.552 0-43.008-22.528-43.008-51.2z m0 0"
          fill="#d2b48c" opacity=".3" p-id="9399" data-spm-anchor-id="a313x.7781069.0.i69" class=""></path>
    <path d="M613.376 75.776c-14.336 0-25.6-12.288-25.6-25.6 0-14.336 12.288-25.6 25.6-25.6 14.336 0 25.6 12.288 25.6 25.6 0 14.336-11.264 25.6-25.6 25.6z m0-40.96c-8.192 0-14.336 7.168-14.336 14.336 0 8.192 7.168 14.336 14.336 14.336 8.192 0 14.336-7.168 14.336-14.336 0-8.192-7.168-14.336-14.336-14.336z m0 0"
          fill="#d2b48c" opacity=".3" p-id="9400" data-spm-anchor-id="a313x.7781069.0.i70" class=""></path>
    <path d="M113.664 218.112c0 47.104 31.744 84.992 71.68 84.992-39.936 0-71.68 37.888-71.68 84.992 0-47.104-31.744-84.992-71.68-84.992 39.936 0 71.68-37.888 71.68-84.992z m0 0"
          fill="#d2b48c" opacity=".3" p-id="9401" data-spm-anchor-id="a313x.7781069.0.i73" class=""></path>
    <path d="M102.4 781.312c-11.264 0-20.48-9.216-20.48-20.48s9.216-20.48 20.48-20.48 20.48 9.216 20.48 20.48-9.216 20.48-20.48 20.48z m0-31.744c-6.144 0-11.264 5.12-11.264 11.264 0 6.144 5.12 11.264 11.264 11.264 6.144 0 11.264-5.12 11.264-11.264 0-6.144-5.12-11.264-11.264-11.264z m0 0"
          fill="#d2b48c" opacity=".3" p-id="9402" data-spm-anchor-id="a313x.7781069.0.i75" class=""></path>
    <path d="M636.928 194.56H303.104c-27.648 0-50.176 22.528-50.176 50.176v629.76c0 27.648 22.528 50.176 50.176 50.176h449.536c27.648 0 50.176-22.528 50.176-50.176V353.28L636.928 194.56z"
          fill="#FFFFFF" p-id="9403"></path>
    <path d="M636.928 194.56H363.52c-25.6 0-47.104 21.504-47.104 47.104v635.904c0 25.6 21.504 47.104 47.104 47.104h392.192c25.6 0 47.104-21.504 47.104-47.104V350.208L636.928 194.56z"
          fill="#d2b48c" opacity=".1" p-id="9404" data-spm-anchor-id="a313x.7781069.0.i52" class="selected"></path>
    <path d="M781.312 924.672h-51.2c-12.288 0 20.48-26.624 20.48-37.888v-491.52c0-11.264-5.12-37.888 7.168-37.888h23.552c12.288 0 21.504 9.216 21.504 19.456v527.36c0 12.288-9.216 20.48-21.504 20.48z"
          fill="#d2b48c" opacity=".3" p-id="9405" data-spm-anchor-id="a313x.7781069.0.i63" class=""></path>
    <path d="M712.704 630.784h-368.64c-7.168 0-12.288-5.12-12.288-12.288s5.12-12.288 12.288-12.288h369.664c7.168 0 12.288 5.12 12.288 12.288s-6.144 12.288-13.312 12.288zM714.752 516.096H491.52c-7.168 0-12.288-5.12-12.288-12.288S484.352 491.52 491.52 491.52h222.208c7.168 0 12.288 5.12 12.288 12.288s-5.12 12.288-11.264 12.288zM714.752 422.912H491.52c-7.168 0-12.288-5.12-12.288-12.288s5.12-12.288 12.288-12.288h222.208c7.168 0 12.288 5.12 12.288 12.288s-5.12 12.288-11.264 12.288zM712.704 757.76h-368.64c-7.168 0-12.288-5.12-12.288-12.288s5.12-12.288 12.288-12.288h369.664c7.168 0 12.288 5.12 12.288 12.288s-6.144 12.288-13.312 12.288zM712.704 878.592h-368.64c-7.168 0-12.288-5.12-12.288-12.288s5.12-12.288 12.288-12.288h369.664c7.168 0 12.288 5.12 12.288 12.288s-6.144 12.288-13.312 12.288zM802.816 367.616H681.984c-35.84 0-64.512-26.624-64.512-60.416V194.56c0-5.12 3.072-9.216 7.168-11.264 4.096-2.048 9.216-1.024 13.312 2.048l173.056 160.768c4.096 3.072 5.12 9.216 3.072 13.312-1.024 5.12-6.144 8.192-11.264 8.192zM642.048 223.232V307.2c0 19.456 18.432 35.84 39.936 35.84h90.112L642.048 223.232z"
          fill="#d2b48c" p-id="9406" data-spm-anchor-id="a313x.7781069.0.i53" class=""></path>
    <path d="M750.592 936.96H306.176c-35.84 0-64.512-26.624-64.512-60.416V242.688c0-32.768 28.672-60.416 64.512-60.416H634.88l181.248 166.912v527.36c-1.024 33.792-29.696 60.416-65.536 60.416zM306.176 206.848c-22.528 0-39.936 16.384-39.936 35.84v633.856c0 19.456 18.432 35.84 39.936 35.84h444.416c22.528 0 39.936-16.384 39.936-35.84V360.448L624.64 206.848H306.176z"
          fill="#d2b48c" p-id="9407" data-spm-anchor-id="a313x.7781069.0.i54" class=""></path>
    <path d="M378.88 436.224c-27.648 0-50.176-22.528-50.176-50.176s22.528-50.176 50.176-50.176 50.176 22.528 50.176 50.176-22.528 50.176-50.176 50.176z m0-74.752c-14.336 0-25.6 11.264-25.6 25.6s11.264 25.6 25.6 25.6 25.6-11.264 25.6-25.6-11.264-25.6-25.6-25.6z"
          fill="#FF9F00" p-id="9408"></path>
    <path d="M445.44 506.88c-7.168 0-12.288-5.12-12.288-12.288 0-30.72-24.576-55.296-55.296-55.296-30.72 0-55.296 24.576-55.296 55.296 0 7.168-5.12 12.288-12.288 12.288s-12.288-5.12-12.288-12.288c0-44.032 35.84-78.848 78.848-78.848 44.032 0 78.848 35.84 78.848 78.848 2.048 6.144-3.072 12.288-10.24 12.288z"
          fill="#FF9F00" p-id="9409"></path>
</svg>
