<svg xmlns="http://www.w3.org/2000/svg" viewBox="0 0 125 125"><title>Artboard 1 copy 2</title><g id="person_16" data-name="person 16"><path id="neck-2" data-name="neck" d="M76.87,65.11s-.19,15.06.44,16.1a6.78,6.78,0,0,0,3.84,3c2.33.88,5.37,2.07,5.37,2.07s-4,26.82-8.87,29.7-19.46,2.29-25,2.27c-7.7,0-14.19-32.92-14.19-32.92S48.28,81.9,50,80.81s1.42-15.7,1.42-15.7Z" fill="#fce7d4" stroke="#020202" stroke-miterlimit="10" stroke-width="0.75"/><path id="face-2" data-name="face" d="M81.64,55.11s-.51,8.77-.69,9.49A12.27,12.27,0,0,1,79.54,68c-3.16,5.7-7.66,12.75-14.94,12.34-6.88-.38-9.41-4-13.32-9.21-2.67-3.57-4.08-6.46-4.27-7.36a41.23,41.23,0,0,1-.25-4.14l-.46.12s-.06.91-.86,1c-1.14.15-1.82-1.29-2.12-2.16-.49-1.48-.26-3-.26-4.67s-2.63-6.15,0-7.58c1.78-1,1.58.3,2.12,1.82a12.45,12.45,0,0,1,.42,1.56l.33-.08s-.05-2.84,0-4.84c.08-3.7-1.06-7.85.33-11.43C50.87,21.55,55.2,21.1,65.81,20.75c9.47-.31,14.78,7.38,15.5,10.9a34.7,34.7,0,0,1,.84,8.56l-.49,9.1.3.06a27.78,27.78,0,0,1,1.26-3.17,1.76,1.76,0,0,1,2.35-.74,1.74,1.74,0,0,1,.69,2c-.28,1-.78,4-1,5.14a16.11,16.11,0,0,0,0,2.6c0,.79-.34,3.54-1.5,3.51C83.05,58.66,81.28,58.7,81.64,55.11Z" fill="#fce7d4" stroke="#020202" stroke-miterlimit="10" stroke-width="0.75"/><path id="nose-4" data-name="nose" d="M63.75,55.86a8,8,0,0,0,3.07,1.37c5.73.49-2.68,5.28-3.69,3.41" fill="none" stroke="#231f20" stroke-miterlimit="10" stroke-width="0.75"/><g id="zipper_copy" data-name="zipper copy"><path d="M3.57,126.64H121.11s-4.51-20.62-5.82-24-.76-5.07-1.88-5.82-6.2-5.07-8.08-5.82c-1.46-.59-2.86-1.42-4.25-2.15q-3.18-1.69-6.34-3.42l-2.1-1.15A7.14,7.14,0,0,1,90.52,83a2.87,2.87,0,0,1-.34-.62A8.79,8.79,0,0,0,88,79.52c-.87-.8-2-1.41-2.75-2.27-1.17-1.26-1.66-2.78-3.65-2.78H76.9l.41,6.74a8.16,8.16,0,0,0,2.5,2.52c1.38,1,1.3,2.39-.2,4.83s-5.09,9.92-6.78,12a44.63,44.63,0,0,1-7.23,6.06c-1,.71-2.47,4.28-2.47,4.28s-7.1-7.42-7.85-9.57-1.05-5.16-6.73-11.25c-2-2.12-4.88-4-3.94-6.48,0,0-.2-.53,2.41-1.46,3.88-1.37,3.78-1.89,3.78-1.89l.4-6s-6.89,2.06-8.76,3-5.07,2.63-5.26,3.57-2.07,2.63-2.07,2.63-11.64,6.38-15.58,7.88-7.13,3.19-8.45,6.39S5.26,115.41,4.7,118.41,3.57,126.64,3.57,126.64Z" fill="#a5e5cf" stroke="#020202" stroke-miterlimit="10" stroke-width="0.75"/><path d="M35.11,83.49s-4.4,6.57-4.4,7.14,6.72-.57,7.78,0a5.7,5.7,0,0,1,2.35,2.63c.39.93,4.63,2.65,6,4.34,1.87,2.28,9.46,5.17,9.46,5.17" fill="none" stroke="#020202" stroke-miterlimit="10" stroke-width="0.75"/><path d="M90.18,82.4a37.88,37.88,0,0,1,1.56,6.35c.18,2.25,1.69,4.32,0,4.32a25.14,25.14,0,0,1-6-.75c-2.26-.57-3.19.75-3.19.75s-5.64,12.4-15.33,12.4" fill="none" stroke="#020202" stroke-miterlimit="10" stroke-width="0.75"/><path d="M63.13,110.9s0,14.27,0,16.53" fill="#f44711" stroke="#020202" stroke-miterlimit="10" stroke-width="0.75"/><circle cx="69.56" cy="115.86" r="1.87" fill="#fff" stroke="#020202" stroke-miterlimit="10" stroke-width="0.75"/></g><path id="mouth-4" data-name="mouth" d="M66.71,68.66a9,9,0,0,1-8.42-1" fill="none" stroke="#020202" stroke-miterlimit="10" stroke-width="0.75"/><g id="eyes_copy_5" data-name="eyes copy 5"><path d="M70.46,48.1a1.19,1.19,0,1,0,2.33-.21,1.19,1.19,0,1,0-2.33.21Z" fill="#fff" stroke="#020202" stroke-miterlimit="10" stroke-width="0.75"/><path d="M59.36,47.88a1.19,1.19,0,1,0,1-1.52A1.31,1.31,0,0,0,59.36,47.88Z" fill="#fff" stroke="#020202" stroke-miterlimit="10" stroke-width="0.75"/><path d="M61.37,51.65S60.09,53.29,59,53a3.91,3.91,0,0,1-1.72-1" fill="none" stroke="#231f20" stroke-miterlimit="10" stroke-width="0.75"/><path d="M73.69,51.65s-1.28,1.64-2.4,1.32a4,4,0,0,1-1.73-1" fill="none" stroke="#231f20" stroke-miterlimit="10" stroke-width="0.75"/><path d="M61.6,42.56s-2.4-2.66-4,.36-2.28,4.43-2.28,4.43" fill="none" stroke="#231f20" stroke-miterlimit="10" stroke-width="0.75"/><path d="M70.32,43s1.62-1.78,3.47.6a14.56,14.56,0,0,1,2.45,4.51" fill="none" stroke="#231f20" stroke-miterlimit="10" stroke-width="0.75"/></g><path d="M47.05,49.34s-1.21,5.78-1.85,4.17-.56-2.56-1.13-3.77-2.24-4.5-2.08-5.06a67.81,67.81,0,0,0,0-6.9c-.07-2.09-.55-6.59.33-8.43a20.54,20.54,0,0,1,3.77-4.9c.4-.24,1.29-.72,1.29-.72a5.31,5.31,0,0,1,2.49-4.5c2.65-1.69,9.15-4.92,16-5.15s14.86,6.19,16.3,8a11.46,11.46,0,0,1,1.93,4.26s1.85,2.48,1.93,3.29a19.77,19.77,0,0,1,0,2.24c-.14,2.65,2.49,8.63-.16,10.85-.48.4-.89.8-.89.8a32.44,32.44,0,0,1-.88,4.9c-.48,1.28-.72,3.37-1.52,3.69a6.67,6.67,0,0,0-1.29.66c.12-2.81.38-5.62.35-8.44s-.08-4.45-2.2-6.35a6.16,6.16,0,0,0-4.57-1.37c-2.41.08-6.53,1.61-8-.24s.58-3.85-2-4.17c-2.27-.29-4.67.45-7,.54-1.4.06-3.89,0-5.09-.86l-.65-.49A13,13,0,0,1,51,34.65a9.52,9.52,0,0,0-1.28,3.77c-.25,1.44-1.37,1.67-1.93,2.92S47.45,47.65,47.05,49.34Z" fill="#23211b" stroke="#000" stroke-miterlimit="10" stroke-width="0.75"/><path d="M62,50.71a11.6,11.6,0,0,1-1.14,3.42c-1.75,2.44-4.59,3.71-7.44,2.28-2-1-3.33-3.3-3.95-5.35-1-3.21-.49-4.33.29-4.54a14.77,14.77,0,0,1,5.18-.5c2.26.24,4.77.88,5.79,1.84S62.19,49.6,62,50.71Z" fill="#231f20" stroke="#231f20" stroke-miterlimit="10" stroke-width="0.75"/><path d="M67.31,50.73a11.37,11.37,0,0,0,1.12,3.42c.7,1,1.88,2.62,3.84,2.84a5.69,5.69,0,0,0,3.59-.53,9.61,9.61,0,0,0,4-5.34c1-3.19.51-4.32-.26-4.53a14.87,14.87,0,0,0-5.18-.53c-2.26.23-4.78.86-5.8,1.82S67.07,49.61,67.31,50.73Z" fill="#231f20" stroke="#231f20" stroke-miterlimit="10" stroke-width="0.75"/><path d="M66.06,48.06a15.71,15.71,0,0,1-2.66,0c-.41-.15-3.25-2.78-4.51-3.23a19.83,19.83,0,0,0-6.62-1c-2,.22-4.7.9-5.08,2.09s.07,4.15,1,6.59,2,3.93,4.25,4.9,4.18,1.16,5.66.46a7.93,7.93,0,0,0,4.12-4.55c.66-2.07,1.71-2.81,2.37-2.81a2.31,2.31,0,0,1,2.14,2.19c.3,1.92,2.62,5.34,5.62,5.46,5.29.2,8.9-3.51,9.86-8.57.52-2.77.38-4-.58-4.7a12.43,12.43,0,0,0-7.07-1C71.88,44.3,67.66,45.18,66.06,48.06Z" fill="#231f20" stroke="#231f20" stroke-miterlimit="10" stroke-width="0.75"/><path d="M62.13,50a11.81,11.81,0,0,1-1.19,3.57c-1.83,2.54-4.78,3.87-7.75,2.37-2.06-1-3.47-3.44-4.12-5.58-1-3.34-.51-4.51.3-4.72a15.33,15.33,0,0,1,5.4-.53c2.35.26,5,.92,6,1.92S62.38,48.83,62.13,50Z" fill="#3d3d3d" stroke="#231f20" stroke-miterlimit="10" stroke-width="0.75"/><path d="M67.71,50a11.69,11.69,0,0,0,1.18,3.57c.72,1,2,2.72,4,3A6.06,6.06,0,0,0,76.63,56a10.12,10.12,0,0,0,4.14-5.57c1-3.33.53-4.51-.28-4.72a15.18,15.18,0,0,0-5.4-.55c-2.35.24-5,.89-6,1.89S67.47,48.84,67.71,50Z" fill="#3d3d3d" stroke="#231f20" stroke-miterlimit="10" stroke-width="0.75"/><path d="M50,80.81S60.53,92.69,64.12,92.55,77.31,81.21,77.31,81.21" fill="#fce7d4" stroke="#020202" stroke-miterlimit="10" stroke-width="0.75"/><circle cx="64.12" cy="95.35" r="2.59" fill="#f7cb14" stroke="#020202" stroke-miterlimit="10" stroke-width="0.75"/></g></svg>